<svg preserveAspectRatio="none" width="100%" height="100%" overflow="visible" style="display: block;" viewBox="0 0 404.733 339.348" fill="none" xmlns="http://www.w3.org/2000/svg">
<path id="Vector 1048" opacity="0.1" d="M18.9719 130.632L9.45517 152.029C-8.80972 193.095 -0.133337 241.152 31.3389 273.238L75.4614 318.221C79.5983 322.439 84.2493 326.12 89.3049 329.177C121.243 348.488 162.699 339.542 183.832 308.779L194.584 293.129C213.438 265.683 245.83 250.795 278.937 254.358L283.594 254.859C332.607 260.135 377.964 228.338 389.717 180.464L400.002 138.567C402.122 129.929 403.323 121.09 403.585 112.199L404.702 74.224C405.596 43.834 387.33 16.149 359.04 5.01342C330.899 -6.06349 298.835 1.59908 278.743 24.2029L240.154 67.6154C214.177 96.8397 171.892 105.14 136.795 87.9035C92.5103 66.155 39.0218 85.5526 18.9719 130.632Z" fill="var(--fill-0, #BAC8D6)"/>
</svg>
